<?xml version="1.0" encoding="UTF-8"?>
<svg width="64px" height="65px" viewBox="0 0 64 65" version="1.1" xmlns="http://www.w3.org/2000/svg" xmlns:xlink="http://www.w3.org/1999/xlink">
    <!-- Generator: Sketch 47 (45396) - http://www.bohemiancoding.com/sketch -->
    <title>enroll</title>
    <desc>Created with Sketch.</desc>
    <defs></defs>
    <g id="Page-1" stroke="none" stroke-width="1" fill="none" fill-rule="evenodd">
        <g id="Enroll" stroke="#000000">
            <g id="pen" transform="translate(15.192350, 7.845272)">
                <path d="M30.3470246,0.0149651617 L29.2626601,6.5211521 C29.175258,7.04360131 28.7231863,7.42644094 28.1934767,7.42659644 L4.33745796,7.42659644 L4.33745796,7.42659644 C3.80774834,7.42644094 3.35567664,7.04360131 3.26827457,6.5211521 L2.18391008,0.0149651617" id="Path"></path>
                <path d="M17.6675506,48.7322086 L16.2654673,47.3301253 L14.8633841,48.7322086 C14.6147852,48.9805941 14.2612314,49.0931054 13.9148036,49.0340748 C13.5683759,48.9750442 13.2720354,48.7517923 13.119726,48.4350927 L0.107352084,21.3259805 C-0.0267455583,21.0472454 -0.0354254767,20.7245103 0.0834960657,20.4389703 L5.50531851,7.42659644 L27.0353754,7.42659644 L32.4571979,20.4389703 C32.5761194,20.7245103 32.5674395,21.0472454 32.4333419,21.3259805 L19.420968,48.4350927 C19.2688732,48.7519896 18.9726065,48.9755032 18.6261288,49.0347463 C18.5626897,49.0451755 18.4984862,49.0502537 18.4341963,49.0499274 C18.1466285,49.0498659 17.8708611,48.9355804 17.6675506,48.7322086 Z" id="Path-2" fill="#FFFFFF"></path>
                <path d="M16.2654673,47.4409064 L16.2654673,27.9223456" id="Line-2" stroke-linecap="square"></path>
                <path d="M16.2654673,27.3626376 C13.8699555,27.3626376 11.9280094,25.4206915 11.9280094,23.0251796 C11.9280094,20.6296677 13.8699555,18.6877217 16.2654673,18.6877217 C18.6609792,18.6877217 20.6029253,20.6296677 20.6029253,23.0251796 C20.6029253,25.4206915 18.6609792,27.3626376 16.2654673,27.3626376 Z" id="circle" fill="#FFFFFF"></path>
            </g>
        </g>
    </g>
</svg>