<?xml version="1.0" encoding="UTF-8"?>
<svg width="64px" height="65px" viewBox="0 0 64 65" version="1.1" xmlns="http://www.w3.org/2000/svg" xmlns:xlink="http://www.w3.org/1999/xlink">
    <!-- Generator: Sketch 47 (45396) - http://www.bohemiancoding.com/sketch -->
    <title>faq</title>
    <desc>Created with Sketch.</desc>
    <defs></defs>
    <g id="Page-1" stroke="none" stroke-width="1" fill="none" fill-rule="evenodd">
        <g id="Faq" stroke="#000000">
            <path d="M22.340717,52.5986856 C22.563946,52.5983299 22.7841658,52.6501754 22.9837905,52.7500818 C26.0319811,54.2710629 29.3934565,55.0586001 32.8000344,55.0498628 C42.6671442,55.0838101 51.3749293,48.6073178 54.1810172,39.1475673 C56.9871051,29.6878169 53.2193678,19.5106548 44.9297638,14.1586951 C36.6401597,8.80673543 25.814256,9.56190618 18.3479799,16.0129316 C10.8817038,22.463957 8.56341484,33.0656554 12.6556831,42.0442048 C12.6995952,42.1427782 12.7329442,42.245725 12.7551721,42.3513229 C12.8085212,42.6108593 13.8884811,48.2399157 8.89961447,54.5149294 C10.5352951,54.7348806 12.1833207,54.8504639 13.8336901,54.860978 C17.4383625,54.860978 20.0337266,54.212137 21.3602461,52.9865483 C21.6282012,52.7364137 21.9813661,52.5977256 22.3479263,52.5986856 L22.340717,52.5986856 Z" id="bg"></path>
            <path d="M23.4329427,27.6910807 C24.7565104,21.914822 28.0488281,19.0266927 33.3098958,19.0266927 C40.3427734,19.0266927 43.186849,23.5833333 43.186849,27.6910807 C43.186849,36.722168 33.5169271,33.7083333 33.5169271,42.1295573" id="1"></path>
            <path d="M33.5895182,45.9088542 L33.5895182,47.5025162" id="2"></path>
        </g>
    </g>
</svg>