<?xml version="1.0" encoding="UTF-8"?>
<svg width="64px" height="65px" viewBox="0 0 64 65" version="1.1" xmlns="http://www.w3.org/2000/svg" xmlns:xlink="http://www.w3.org/1999/xlink">
    <!-- Generator: Sketch 47 (45396) - http://www.bohemiancoding.com/sketch -->
    <title>form</title>
    <desc>Created with Sketch.</desc>
    <defs></defs>
    <g id="Page-1" stroke="none" stroke-width="1" fill="none" fill-rule="evenodd">
        <g id="Form" stroke="#000000">
            <path d="M47.4845018,15.9422223 L16.5154982,15.9422223 L16.5154982,15.9422223 C15.9632135,15.9422223 15.5154982,16.3899376 15.5154982,16.9422223 L15.5154982,50.7084961 L15.5154982,50.7084961 C15.5154982,51.2607808 15.9632135,51.7084961 16.5154982,51.7084961 L47.4845018,51.7084961 L47.4845018,51.7084961 C48.0367865,51.7084961 48.4845018,51.2607808 48.4845018,50.7084961 L48.4845018,16.9422223 L48.4845018,16.9422223 C48.4845018,16.3899376 48.0367865,15.9422223 47.4845018,15.9422223 Z" id="bg"></path>
            <path d="M39.3058864,11.6339327 L42.228241,11.6339327 L41.239758,15.430786 L36.1256375,15.430786 C35.4226465,17.1283887 34.047434,17.9771901 32,17.9771901 C29.952566,17.9771901 28.5773535,17.1283887 27.8743625,15.430786 L22.760242,15.430786 L21.771759,11.6339327 L39.3058864,11.6339327 Z" id="Composite_Path-path" fill="#FFFFFF" transform="translate(32.000000, 14.805561) scale(1, -1) translate(-32.000000, -14.805561) "></path>
            <g id="Group-3" transform="translate(21.000000, 24.327838)" stroke-linecap="round" stroke-linejoin="round">
                <path d="M1.21646516,19.5 L9.66588161,19.5" id="Line-5"></path>
                <path d="M1.21646516,0.5 L20.7835348,0.5" id="Line-5"></path>
                <path d="M1.21646516,7.5 L20.7835348,7.5" id="Line-5"></path>
                <path d="M1.21646516,13.5 L20.7835348,13.5" id="Line-5"></path>
            </g>
        </g>
    </g>
</svg>