<svg viewBox="0 0 64 65">
	<g transform="translate(8.901461, 18.299747)" fill="#FFFFFF">
	    <path d="M14.4893863,20.2962772 C14.924568,20.7370301 14.9200516,21.4471155 14.4792986,21.8822972 C12.8166127,23.351087 10.8512913,24.4362995 8.72255009,25.0610625 C4.7872027,26.3040988 0.722956156,28.5021097 0.0594056997,35.2866889 C11.9949975,37.2982555 24.1830736,37.2982555 36.1186654,35.2866889 C35.4551149,28.5021097 31.3908684,26.3040988 27.455521,25.0621834 C25.3270795,24.4369385 23.3621471,23.3513468 21.6998933,21.8822972 C21.2993392,21.4423707 21.3122949,20.7661394 21.7294056,20.3418782"></path>
	    <path d="M9.70149111,13.6900207 L9.79340182,13.7460639 C10.2205522,13.9337407 10.5553376,14.2838536 10.7237175,14.7189723 C11.1619746,16.2366198 14.1165675,21.8924908 18.0877825,21.8924908 C22.0589975,21.8924908 25.0158321,16.2332572 25.4540893,14.7189723 C25.6235482,14.2854465 25.9575659,13.9365209 26.3832841,13.7483056 L26.4740739,13.6933833 C27.5175967,11.7699837 27.3248084,10.9640837 27.2362603,10.7578451 C27.1702611,10.5942642 27.03257,10.4702182 26.8630131,10.4215864 C26.3369078,10.2860831 25.9719171,9.808075 25.9797737,9.26485656 C26.0325715,7.80380409 25.8870282,6.3423385 25.5471208,4.92039445 C25.4944403,4.73433131 24.1225049,0.114137084 18.0877825,0.114137084 C11.9947753,0.114137084 10.6418945,4.87668082 10.6284442,4.92487789 C10.2897866,6.34513031 10.1442568,7.80457494 10.1957914,9.26373569 C10.2271621,9.82708102 9.83489877,10.3259325 9.2800469,10.4283116 C9.12772351,10.4865283 9.00609981,10.6049087 8.94378823,10.7556034 C8.85299838,10.9629629 8.65908921,11.7711046 9.70149111,13.6900207 Z"></path>
	</g>
	<g transform="translate(37.000000, 9.943359)">
	    <polygon stroke-linecap="round" stroke-linejoin="round" points="0 0 17.519043 0 17.519043 12.3186849 11.2798203 12.4584176 4.15651891 20.0446777 4.15651891 12.3186849 0 12.3186849"></polygon>
	    <path d="M3.94178467,3.31656901 L13.6169924,3.31656901"></path>
	    <path d="M3.94178467,6.15934245 L13.6169924,6.15934245"></path>
	    <path d="M3.94178467,9.00211589 L7.44559326,9.00211589"></path>
	</g>
</svg>