<?xml version="1.0" encoding="UTF-8"?>
<svg width="65px" height="65px" viewBox="0 0 65 65" version="1.1" xmlns="http://www.w3.org/2000/svg" xmlns:xlink="http://www.w3.org/1999/xlink">
    <!-- Generator: Sketch 47 (45396) - http://www.bohemiancoding.com/sketch -->
    <title>metors</title>
    <desc>Created with Sketch.</desc>
    <defs></defs>
    <g id="Page-1" stroke="none" stroke-width="1" fill="none" fill-rule="evenodd">
        <g id="Intro" transform="translate(0.276367, 0.000000)" stroke="#000000" fill="#FFFFFF">
            <g id="Path" transform="translate(27.110084, 10.091125)">
                <path d="M8.48938632,20.2962772 C8.92456798,20.7370301 8.92005158,21.4471155 8.47929865,21.8822972 C6.8166127,23.351087 4.85129133,24.4362995 2.72255009,25.0610625 C-1.2127973,26.3040988 2.00581017,28.5021097 1.34225971,35.2866889 C5.30585524,35.954694 2.01444035,36.4008667 6.01523036,36.6252068 C14.062036,37.076423 22.1466692,36.6302504 30.1186654,35.2866889 C29.4551149,28.5021097 25.3908684,26.3040988 21.455521,25.0621834 C19.3270795,24.4369385 17.3621471,23.3513468 15.6998933,21.8822972 C15.2993392,21.4423707 15.3122949,20.7661394 15.7294056,20.3418782"></path>
                <path d="M3.70149111,13.6900207 L3.79340182,13.7460639 C4.22055223,13.9337407 4.55533756,14.2838536 4.72371749,14.7189723 C5.16197463,16.2366198 8.11656754,21.8924908 12.0877825,21.8924908 C16.0589975,21.8924908 19.0158321,16.2332572 19.4540893,14.7189723 C19.6235482,14.2854465 19.9575659,13.9365209 20.3832841,13.7483056 L20.4740739,13.6933833 C21.5175967,11.7699837 21.3248084,10.9640837 21.2362603,10.7578451 C21.1702611,10.5942642 21.03257,10.4702182 20.8630131,10.4215864 C20.3369078,10.2860831 19.9719171,9.808075 19.9797737,9.26485656 C20.0325715,7.80380409 19.8870282,6.3423385 19.5471208,4.92039445 C19.4944403,4.73433131 18.1225049,0.114137084 12.0877825,0.114137084 C5.99477529,0.114137084 4.64189455,4.87668082 4.6284442,4.92487789 C4.28978659,6.34513031 4.14425685,7.80457494 4.19579137,9.26373569 C4.22716212,9.82708102 3.83489877,10.3259325 3.2800469,10.4283116 C3.12772351,10.4865283 3.00609981,10.6049087 2.94378823,10.7556034 C2.85299838,10.9629629 2.65908921,11.7711046 3.70149111,13.6900207 Z"></path>
            </g>
            <g id="Path" transform="translate(8.901461, 18.299747)">
                <path d="M14.4893863,20.2962772 C14.924568,20.7370301 14.9200516,21.4471155 14.4792986,21.8822972 C12.8166127,23.351087 10.8512913,24.4362995 8.72255009,25.0610625 C4.7872027,26.3040988 0.722956156,28.5021097 0.0594056997,35.2866889 C11.9949975,37.2982555 24.1830736,37.2982555 36.1186654,35.2866889 C35.4551149,28.5021097 31.3908684,26.3040988 27.455521,25.0621834 C25.3270795,24.4369385 23.3621471,23.3513468 21.6998933,21.8822972 C21.2993392,21.4423707 21.3122949,20.7661394 21.7294056,20.3418782"></path>
                <path d="M9.70149111,13.6900207 L9.79340182,13.7460639 C10.2205522,13.9337407 10.5553376,14.2838536 10.7237175,14.7189723 C11.1619746,16.2366198 14.1165675,21.8924908 18.0877825,21.8924908 C22.0589975,21.8924908 25.0158321,16.2332572 25.4540893,14.7189723 C25.6235482,14.2854465 25.9575659,13.9365209 26.3832841,13.7483056 L26.4740739,13.6933833 C27.5175967,11.7699837 27.3248084,10.9640837 27.2362603,10.7578451 C27.1702611,10.5942642 27.03257,10.4702182 26.8630131,10.4215864 C26.3369078,10.2860831 25.9719171,9.808075 25.9797737,9.26485656 C26.0325715,7.80380409 25.8870282,6.3423385 25.5471208,4.92039445 C25.4944403,4.73433131 24.1225049,0.114137084 18.0877825,0.114137084 C11.9947753,0.114137084 10.6418945,4.87668082 10.6284442,4.92487789 C10.2897866,6.34513031 10.1442568,7.80457494 10.1957914,9.26373569 C10.2271621,9.82708102 9.83489877,10.3259325 9.2800469,10.4283116 C9.12772351,10.4865283 9.00609981,10.6049087 8.94378823,10.7556034 C8.85299838,10.9629629 8.65908921,11.7711046 9.70149111,13.6900207 Z"></path>
            </g>
        </g>
    </g>
</svg>