<?xml version="1.0" encoding="UTF-8"?>
<svg width="65px" height="65px" viewBox="0 0 65 65" version="1.1" xmlns="http://www.w3.org/2000/svg" xmlns:xlink="http://www.w3.org/1999/xlink">
    <!-- Generator: Sketch 47 (45396) - http://www.bohemiancoding.com/sketch -->
    <title>money</title>
    <desc>Created with Sketch.</desc>
    <defs></defs>
    <g id="Page-1" stroke="none" stroke-width="1" fill="none" fill-rule="evenodd">
        <g id="money" stroke="#000000">
            <path d="M53.1943676,19.1118577 L8.80563237,19.1118577 L8.80563237,19.1118577 C8.25334762,19.1118577 7.80563237,19.5595729 7.80563237,20.1118577 L7.80563237,47.5388608 L7.80563237,47.5388608 C7.80563237,48.0911455 8.25334762,48.5388608 8.80563237,48.5388608 L53.1943676,48.5388608 L53.1943676,48.5388608 C53.7466524,48.5388608 54.1943676,48.0911455 54.1943676,47.5388608 L54.1943676,20.1118577 L54.1943676,20.1118577 C54.1943676,19.5595729 53.7466524,19.1118577 53.1943676,19.1118577 Z" id="bg" transform="translate(31.000000, 33.825359) rotate(-16.000000) translate(-31.000000, -33.825359) "></path>
            <path d="M53.1943676,19.1118577 L8.80563237,19.1118577 L8.80563237,19.1118577 C8.25334762,19.1118577 7.80563237,19.5595729 7.80563237,20.1118577 L7.80563237,47.5388608 L7.80563237,47.5388608 C7.80563237,48.0911455 8.25334762,48.5388608 8.80563237,48.5388608 L53.1943676,48.5388608 L53.1943676,48.5388608 C53.7466524,48.5388608 54.1943676,48.0911455 54.1943676,47.5388608 L54.1943676,20.1118577 L54.1943676,20.1118577 C54.1943676,19.5595729 53.7466524,19.1118577 53.1943676,19.1118577 Z" id="bg" fill="#FFFFFF" transform="translate(31.000000, 33.825359) rotate(-3.000000) translate(-31.000000, -33.825359) "></path>
            <g id="Group-2" transform="translate(9.000000, 22.000000)">
                <path d="M46.1943676,0.111857669 L1.80563237,0.111857669 L1.80563237,0.111857669 C1.25334762,0.111857669 0.805632373,0.559572919 0.805632373,1.11185767 L0.805632373,28.5388608 L0.805632373,28.5388608 C0.805632373,29.0911455 1.25334762,29.5388608 1.80563237,29.5388608 L46.1943676,29.5388608 L46.1943676,29.5388608 C46.7466524,29.5388608 47.1943676,29.0911455 47.1943676,28.5388608 L47.1943676,1.11185767 L47.1943676,1.11185767 C47.1943676,0.559572919 46.7466524,0.111857669 46.1943676,0.111857669 Z" id="bg" fill="#FFFFFF"></path>
                <g id="Group-5" stroke-linecap="square">
                    <path d="M1.21791596,9.28208404 L10,0.5" id="Line-6"></path>
                    <path d="M38.128063,29.294293 L46.7473497,20.6750063" id="Line-6"></path>
                    <path d="M1.18831532,28.1942124 L10.2601318,19.1223958" id="Line-6" transform="translate(5.260132, 24.122396) scale(1, -1) translate(-5.260132, -24.122396) "></path>
                    <path d="M38.128063,9.86777588 L46.9071032,1.08873566" id="Line-6" transform="translate(42.883495, 5.112344) scale(1, -1) translate(-42.883495, -5.112344) "></path>
                </g>
            </g>
            <g id="Group-4" transform="translate(26.000000, 29.000000)" stroke-linecap="square">
                <path d="M0.5,6.32535922 L13.0012199,6.32535922" id="Line-7"></path>
                <path d="M1,10.8253592 L12.5046016,10.8253592" id="Line-7"></path>
                <path d="M6.5,6.5 L6.5,15.5" id="Line-7"></path>
                <path d="M6.5,6.5 L1.5,0.5" id="Line-7"></path>
                <path d="M11.5,6.5 L6.5,0.5" id="Line-7" transform="translate(9.000000, 3.825359) scale(-1, 1) translate(-9.000000, -3.825359) "></path>
            </g>
        </g>
    </g>
</svg>